<svg xmlns="http://www.w3.org/2000/svg" viewBox="0 0 200 200" width="200" height="200">
  <!-- Background Circle -->
  <circle cx="100" cy="100" r="90" fill="#f0f4ff" />
  
  <!-- Gear/Cog -->
  <path d="M100,60 L107,60 L110,70 L120,65 L125,70 L120,80 L130,85 L127,92 L117,90 L115,100 L117,110 L127,108 L130,115 L120,120 L125,130 L120,135 L110,130 L107,140 L100,140 L97,130 L87,135 L82,130 L87,120 L77,115 L80,108 L90,110 L92,100 L90,90 L80,92 L77,85 L87,80 L82,70 L87,65 L97,70 L100,60" fill="#4e42d4" opacity="0.2" />
  <circle cx="100" cy="100" r="20" fill="#4e42d4" opacity="0.3" />
  <circle cx="100" cy="100" r="15" fill="white" />
  
  <!-- Automation Flow Lines -->
  <path d="M40,100 L60,100" stroke="#4e42d4" stroke-width="3" stroke-linecap="round" />
  <path d="M140,100 L160,100" stroke="#4e42d4" stroke-width="3" stroke-linecap="round" />
  <path d="M100,40 L100,60" stroke="#4e42d4" stroke-width="3" stroke-linecap="round" />
  <path d="M100,140 L100,160" stroke="#4e42d4" stroke-width="3" stroke-linecap="round" />
  
  <!-- Input/Output Nodes -->
  <rect x="20" y="90" width="20" height="20" rx="3" fill="#ff6b6b" />
  <rect x="160" y="90" width="20" height="20" rx="3" fill="#ff6b6b" />
  <rect x="90" y="20" width="20" height="20" rx="3" fill="#ff6b6b" />
  <rect x="90" y="160" width="20" height="20" rx="3" fill="#ff6b6b" />
  
  <!-- Automation Elements -->
  <!-- Email Icon -->
  <rect x="25" y="50" width="30" height="20" rx="2" fill="#4e42d4" opacity="0.2" />
  <path d="M25,50 L40,60 L55,50" fill="none" stroke="#4e42d4" stroke-width="1" />
  
  <!-- Calendar Icon -->
  <rect x="145" y="50" width="30" height="30" rx="2" fill="#4e42d4" opacity="0.2" />
  <line x1="145" y1="60" x2="175" y2="60" stroke="#4e42d4" stroke-width="1" />
  <line x1="155" y1="55" x2="155" y2="75" stroke="#4e42d4" stroke-width="1" />
  <line x1="165" y1="55" x2="165" y2="75" stroke="#4e42d4" stroke-width="1" />
  
  <!-- Document Icon -->
  <path d="M35,140 L55,140 L55,170 L35,170 Z" fill="#4e42d4" opacity="0.2" />
  <line x1="40" y1="150" x2="50" y2="150" stroke="#4e42d4" stroke-width="1" />
  <line x1="40" y1="155" x2="50" y2="155" stroke="#4e42d4" stroke-width="1" />
  <line x1="40" y1="160" x2="45" y2="160" stroke="#4e42d4" stroke-width="1" />
  
  <!-- Analytics Icon -->
  <rect x="145" y="140" width="30" height="30" rx="2" fill="#4e42d4" opacity="0.2" />
  <line x1="150" y1="165" x2="150" y2="155" stroke="#4e42d4" stroke-width="1" />
  <line x1="155" y1="165" x2="155" y2="150" stroke="#4e42d4" stroke-width="1" />
  <line x1="160" y1="165" x2="160" y2="160" stroke="#4e42d4" stroke-width="1" />
  <line x1="165" y1="165" x2="165" y2="145" stroke="#4e42d4" stroke-width="1" />
  <line x1="170" y1="165" x2="170" y2="155" stroke="#4e42d4" stroke-width="1" />
</svg>